<?xml version="1.0" encoding="utf-8"?>
<!-- Generator: Adobe Illustrator 25.1.0, SVG Export Plug-In . SVG Version: 6.00 Build 0)  -->
<svg version="1.1" id="Logo" xmlns="http://www.w3.org/2000/svg" xmlns:xlink="http://www.w3.org/1999/xlink" x="0px" y="0px"
	 viewBox="0 0 159 52" style="enable-background:new 0 0 159 52;" xml:space="preserve">
<style type="text/css">
	.st0{enable-background:new    ;}
	.st1{fill:#E0007A;}
	.st2{fill:#1A1818;}
</style>
<g class="st0">
	<path class="st1" d="M18,29.6l0.2-0.4l0.5-0.6c0.3-0.4,0.5-0.7,0.6-0.8c0-0.1,0.1-0.2,0.1-0.3c0.1-0.1,0.1-0.2,0.1-0.4l0.2-0.3
		c0.1-0.1,0.1-0.1,0.1-0.1s-0.1-0.1-0.2-0.2L19.6,26c0-0.1-0.3-0.4-1-1h-0.2L17,24.3l-0.1-0.2l-0.2,0l-0.2,0.1h0L15.8,24
		c-0.5-0.1-0.9-0.3-1.1-0.3c0,0-0.1,0-0.1,0l-0.8-0.2c-0.2-0.1-0.4-0.1-0.4-0.2s-0.2-0.1-0.3-0.2C13,23.1,12.9,23,12.8,23
		c-0.1-0.1-0.2-0.1-0.3-0.1L12,23c0,0-0.2-0.1-0.5-0.2c-0.1-0.1-0.1-0.2-0.1-0.2l-0.6,0.1c-0.4-0.2-0.6-0.3-0.6-0.3
		c-0.1,0-0.3,0-0.7-0.1s-0.6-0.1-0.8-0.2S8.4,22,8.2,21.9l-0.1-0.1c0,0-0.1-0.1-0.2-0.1H7.5c-0.1,0-0.2-0.1-0.3-0.2
		s-0.3-0.3-0.5-0.4s-0.4-0.3-0.6-0.6c-0.2-0.3-0.3-0.6-0.3-0.8c0,0,0-0.1,0-0.1l0.1-0.6C6,18.1,6.4,17.4,7,16.7
		c0.1-0.4,0.3-0.6,0.6-0.8l0.1-0.3c0.4-0.3,0.6-0.6,0.8-0.8c0.2-0.2,0.3-0.4,0.6-0.5c0.2-0.1,0.4-0.2,0.5-0.3l0.4-0.2
		c0-0.1,0.3-0.4,0.9-0.8s1.1-0.7,1.4-0.9s0.6-0.2,0.7-0.3c0.1-0.1,0.4-0.2,1-0.3c0.1-0.4,0.3-0.5,0.6-0.5h0.3l0.4-0.4l0.5,0
		c0,0,0.1-0.1,0.2-0.2s0.3-0.2,0.6-0.2l2.4-0.7H19l0.2,0c0.1,0,0.2-0.1,0.4-0.3c0.2-0.2,0.4-0.3,0.6-0.3c0.1,0,0.1,0.1,0.3,0.2
		c0,0,0,0,0,0L21,9.1l0.6,0L22.4,9c0.5,0,0.9,0.1,1.3,0.4l0-0.1V9.1c0-0.2,0.1-0.3,0.4-0.3c0.1,0,0.2,0,0.2,0.1L24.5,9h0.1
		c0,0,0.2,0.1,0.5,0.2C25.4,9.1,25.5,9,25.5,9c0.2,0,0.4,0.1,0.6,0.3l0.3,0c0.1-0.1,0.2-0.2,0.2-0.2c0.1,0,0.2,0.1,0.3,0.3l0.1,0
		h0.5c0,0,0.1,0,0.2,0.1l0.2,0.2c0.1,0.1,0.2,0.2,0.2,0.3s0.1,0.1,0.1,0.2c0.3-0.1,0.5-0.2,0.5-0.2c0.1,0,0.2,0.1,0.3,0.3
		c0,0.2,0.1,0.4,0.3,0.5c0.2,0.2,0.3,0.4,0.3,0.6c0.3,0.1,0.4,0.3,0.4,0.6l0.4,1l-0.1,0.3c0.1,0.2,0.2,0.3,0.2,0.4l-0.1,0.7l0.1,0.8
		c0,0.4-0.2,0.7-0.6,1c-0.1,0-0.2,0.1-0.4,0.2s-0.3,0.2-0.3,0.2c-0.3,0-0.6-0.1-0.7-0.2c-0.1-0.2-0.2-0.3-0.3-0.4
		c-0.1-0.1-0.2-0.2-0.2-0.3c0-0.3,0.2-0.6,0.6-0.9c0.2,0,0.3-0.1,0.4-0.2c0-0.3-0.1-0.5-0.2-0.6s-0.2-0.2-0.4-0.4s-0.3-0.3-0.4-0.4
		s-0.3-0.3-0.4-0.4s-0.2-0.3-0.3-0.3l-0.3,0l-0.6-0.1c-0.6-0.1-1.1-0.2-1.6-0.4h-0.4l-1.1-0.2c-0.2,0.1-0.4,0.1-0.8,0.1l-1.3,0.2
		l-0.5,0c0,0-0.4,0.1-1.1,0.3l-0.2,0h-0.5c0,0-0.2,0.1-0.5,0.2c-0.3,0.1-0.6,0.2-0.8,0.3L17.9,13c0,0-0.1,0-0.1,0l-0.3,0l-1.7,0.8
		l-0.3-0.2c-0.2-0.1-0.3-0.2-0.4-0.2c-0.2,0-0.3,0.1-0.3,0.3l0,0.4c-0.2,0.1-0.3,0.2-0.3,0.2c-0.1,0.1-0.1,0.1-0.2,0.1H14
		c-0.2,0-0.3,0.1-0.4,0.2S13.3,15,13.2,15c-0.1,0-0.3,0.1-0.4,0.2c0,0.1-0.1,0.1-0.3,0.2c-0.2,0.1-0.3,0.2-0.4,0.4S11.8,16,11.7,16
		l-0.4-0.1l-0.2,0.4c-0.3,0.1-0.4,0.1-0.5,0.1c-0.2,0.2-0.3,0.4-0.5,0.5c-0.2,0.1-0.3,0.2-0.5,0.4c-0.2,0.1-0.3,0.3-0.4,0.4
		C9.2,17.8,9.1,18,8.9,18c-0.1,0.1-0.3,0.3-0.4,0.5l-0.2,0.2C8,19,7.9,19.3,7.9,19.6c0,0.2,0.2,0.4,0.5,0.5s0.5,0.2,0.6,0.3
		s0.2,0.1,0.4,0.1s0.3,0,0.4,0.1c0.1,0.1,0.4,0.2,0.7,0.3c0.1,0.2,0.1,0.3,0.2,0.3c0,0,0.1-0.1,0.2-0.2s0.2-0.2,0.4-0.2
		c0.2,0,0.3,0.1,0.5,0.3l0.2-0.1h0.1l0.3,0.1h0l0.2-0.1c0,0,0.1,0,0.1,0c0,0,0.2,0.1,0.6,0.2h0c0,0,0.1,0,0.3-0.1
		c0.2,0.1,0.3,0.1,0.3,0.1l0.3,0.2c0,0,0,0.1,0.1,0.1s0.1,0,0.2-0.1s0.2-0.1,0.3-0.1c0.1,0,0.2,0.1,0.4,0.2c0.2-0.1,0.3-0.1,0.4-0.1
		c0.1,0,0.3,0.1,0.6,0.3l0.4,0.1h0.4l0.6,0.1c0.2,0.2,0.4,0.3,0.6,0.4c0-0.1,0.1-0.2,0.3-0.2c0.2,0,0.5,0.1,1,0.3l0.2,0l0.2,0.1
		c0.2-0.1,0.4-0.1,0.4-0.1c0.3,0,0.4,0.1,0.4,0.3c0,0.2,0,0.4-0.1,0.6c0,0,0.1,0,0.1,0.1c0.1-0.1,0.1-0.1,0.2-0.2l0.3-0.2
		C20.9,23,21,23,21,23c0.3,0,0.7,0.2,1.3,0.6s0.9,0.9,0.9,1.4c0,0.2,0.1,0.3,0.2,0.5l-0.1,0.3l0,0.3c0,0,0,0.1-0.1,0.3l0,0.3
		c0,0.1-0.1,0.1-0.1,0.1C23,26.9,23,26.9,23,27l0.1,0.3v0.1c0,0.1,0,0.1-0.1,0.2s-0.2,0.2-0.2,0.3c0,0.1-0.1,0.2-0.1,0.2
		c-0.1,0.1-0.1,0.2-0.1,0.3c0,0.1-0.2,0.3-0.4,0.4c-0.2,0.1-0.3,0.3-0.3,0.3s0,0.1,0.1,0.1c0.2,0,0.3-0.1,0.5-0.2
		c0.2-0.1,0.3-0.2,0.4-0.3c0.1,0,0.2-0.1,0.5-0.2l1.8-0.9c1.4-0.7,2.1-1,2.3-1c0.2,0,0.3,0.1,0.3,0.3c0,0.1-0.1,0.2-0.3,0.4
		c0,0.6-0.3,1-0.8,1.1c-0.2,0.1-0.3,0.3-0.4,0.4H26c-0.3,0.4-0.7,0.5-1.1,0.5h-0.1c-0.5,0.5-1.1,0.7-1.8,0.8
		c-0.5,0.5-0.8,0.7-1.1,0.7L21.5,31c-0.3,0.1-0.6,0.2-0.7,0.2c0,0-0.1,0.1-0.2,0.2l-0.3,0.2c-0.2,0.1-0.5,0.2-0.8,0.4
		c-0.3,0.2-0.5,0.4-0.7,0.4c-0.1,0-0.3,0.1-0.5,0.2c-0.2,0.1-0.9,0.5-2.1,1.3L16.2,34c-0.5,0.2-0.8,0.4-1,0.6
		c-0.1,0.1-0.3,0.3-0.5,0.4h-0.1c-0.3,0-0.7,0.2-1.1,0.6c0,0.1-0.3,0.2-0.8,0.3c-0.5,0.1-1.1,0.4-1.6,0.7c-0.3,0.1-0.7,0.2-1.2,0.3
		c-0.5,0.1-0.8,0.2-1,0.2l-1.4,0.3c-0.3,0.1-0.6,0.1-1,0.2c-0.2-0.1-0.4-0.1-0.6-0.1l-0.4,0c-0.1,0-0.1,0-0.2-0.1
		c-0.1-0.1-0.3-0.2-0.4-0.3c-0.2-0.1-0.3-0.3-0.3-0.7c0-0.3,0.4-0.6,1.1-1C6.5,35.2,7,35,7.2,34.8c0.1-0.1,0.3-0.2,0.5-0.3
		s0.5-0.1,0.7-0.2c0.2-0.1,0.5-0.2,0.8-0.4l0.8-0.4c0,0,0.1,0,0.1,0h0.3c0.1,0,0.2-0.1,0.4-0.2c0.2-0.1,0.4-0.2,0.6-0.3h0.2
		c0,0,0.1,0,0.1-0.1s0.2-0.1,0.4-0.3l0.1,0h0.2c0.1-0.1,0.3-0.2,0.5-0.3s0.4-0.2,0.6-0.3l1.5-0.6l0.4,0c0.1,0,0.2-0.1,0.3-0.2
		s0.4-0.3,0.9-0.4c0.1-0.1,0.2-0.2,0.4-0.4s0.5-0.4,0.7-0.6L18,29.6z M11.2,34.4l-0.3,0c-0.2,0.1-0.4,0.2-0.5,0.2
		c-0.2,0-0.5,0.1-0.8,0.4s-0.8,0.4-1.3,0.7S7.6,35.9,7.6,36c0.6-0.1,1.3-0.3,2-0.5l1.4-0.4c0.2-0.1,0.3-0.1,0.4-0.2s0.2-0.1,0.4-0.2
		l0.3-0.2c0.1,0,0.2-0.1,0.4-0.2c0.2-0.1,0.3-0.2,0.3-0.2c0-0.1,0-0.1-0.1-0.1c-0.5,0-0.8,0.1-1.1,0.2
		C11.4,34.4,11.2,34.4,11.2,34.4z"/>
	<path class="st1" d="M30.7,33.3l0.4,0.3c0.2,0.1,0.3,0.3,0.3,0.7c0,0.1,0,0.2-0.1,0.3c-0.1,0.1-0.1,0.2-0.2,0.3
		c-0.5,0.9-1,1.3-1.6,1.3c-0.2,0-0.5-0.2-0.9-0.5c-0.4-0.4-0.7-0.7-0.8-1c-0.1-0.3-0.2-0.5-0.3-0.5c-0.1-0.1-0.1-0.1-0.1-0.2
		c0-0.1,0.1-0.3,0.2-0.5c0.1-0.2,0.2-0.4,0.2-0.6c0.1-0.3,0.2-0.4,0.4-0.6c0.2-0.1,0.4-0.2,0.5-0.4c0.1-0.1,0.2-0.2,0.4-0.2
		c0.1,0,0.2,0,0.3,0.1c0.1,0.1,0.3,0.2,0.4,0.3c0.2,0.1,0.4,0.3,0.6,0.6L30.7,33.3z"/>
	<path class="st1" d="M47.8,10.9l0.3-0.1c0.2,0,0.4-0.1,0.6-0.3c0.1,0,0.1,0,0.2-0.1h0.3c0.2-0.2,0.4-0.3,0.6-0.3s0.5-0.1,0.8-0.1
		s0.6-0.1,0.8-0.1c0.2,0,0.3,0,0.4-0.1c0.1,0,0.1-0.1,0.2-0.1l0.5,0.1c0.4,0,0.6,0.1,0.7,0.2s0.4,0.3,0.7,0.6s0.5,0.8,0.5,1.7v0
		l-0.1,0.4l0,0.3c0,0.1-0.1,0.2-0.2,0.3l-0.1,0.2c0,0.3-0.1,0.5-0.2,0.8c-0.2,0.2-0.3,0.5-0.3,0.7l-0.2,0.3L53.1,16l-0.5,0.6
		l-0.4,0.7l-0.4,0.5l0,0.1c-0.1,0.2-0.2,0.4-0.4,0.4v0.4c0,0.1-0.1,0.3-0.3,0.6s-0.3,0.5-0.3,0.7l-0.2,0.4c0.1,0.1,0.3,0.2,0.5,0.2
		c0,0,0.2-0.1,0.5-0.2c0.3-0.1,0.5-0.2,0.7-0.2l1.8-0.4c0,0,0.1,0,0.2,0.1c0.1-0.1,0.1-0.2,0.2-0.2l0.5-0.2c0.2,0.1,0.3,0.1,0.3,0.1
		c0.4,0,0.9-0.1,1.4-0.3c0.8-0.2,1.6-0.3,2.4-0.3l1.6-0.4c0.1-0.1,0.2-0.3,0.2-0.5c0.1-0.3,0.2-0.4,0.3-0.5s0.2-0.2,0.3-0.3
		c0.1-0.1,0.1-0.3,0.3-0.5l0.2-0.5l0.5-0.9l0.1-0.4c0.1-0.2,0.2-0.4,0.6-0.8v-0.1c0-0.3,0.1-0.5,0.4-0.6l0-0.1v-0.5
		c0-0.2,0.1-0.3,0.4-0.4l0.2-0.3l0-0.6c0-0.1,0.1-0.3,0.2-0.4c0.1-0.1,0.2-0.2,0.2-0.3c0-0.1,0.1-0.3,0.2-0.5l0.1-0.4
		c0-0.1,0-0.2,0.1-0.2s0.1-0.2,0.1-0.5c0-0.9,0.4-1.3,1.2-1.3c0.3,0,0.5,0.2,0.9,0.5s0.5,0.6,0.5,0.9c0,0.8-0.1,1.3-0.2,1.6
		c0,0.1-0.1,0.2-0.2,0.5c-0.1,0.3-0.3,0.7-0.7,1.4L66.2,13h-0.3l0,0l0.1,0.5l-0.2,0.2V14c-0.1,0.1-0.1,0.1-0.1,0.3s-0.1,0.3-0.3,0.4
		c-0.1,0.2-0.2,0.3-0.2,0.3v0.2L65,15.4c-0.2,0.5-0.4,0.8-0.4,0.9c0,0.1-0.1,0.2-0.2,0.4c0,0.2-0.1,0.5-0.4,0.8c0,0,0,0.1,0,0.1
		l-0.2,0.6c0.1,0,0.6,0,1.6,0l0.4,0l0.8,0.2c0.1,0,0.2,0,0.3,0l0.1,0.2c0.4,0,0.6,0.2,0.6,0.4c0,0.4-0.1,0.8-0.4,1.1s-0.6,0.5-1,0.5
		c-0.1,0-0.2,0-0.4-0.1s-0.3-0.1-0.4-0.1l-0.5,0.1l-0.5-0.2l-0.3,0l-0.3,0l-0.3,0l-0.2,0c-0.2,0-0.3,0.1-0.5,0.2h-0.4
		c0,0-0.2,0.4-0.6,1.1s-0.6,1.3-0.8,1.7c0,0.1-0.1,0.1-0.3,0.2c-0.1,0.5-0.3,0.7-0.6,0.8l0,0.3c-0.1,0.2-0.1,0.3-0.1,0.5
		s-0.1,0.3-0.3,0.5s-0.3,0.4-0.4,0.7s-0.1,0.7-0.3,1.1S58.8,28,58.7,28s-0.2,0.2-0.3,0.5c-0.2,0.2-0.3,0.4-0.5,0.5s-0.2,0.2-0.2,0.3
		l0.1,0.3c-0.1,0.5-0.2,0.7-0.4,0.7v0.2c0,0.1-0.1,0.3-0.4,0.4c0.1,0.2,0.1,0.3,0.1,0.3c0,0.2-0.1,0.4-0.2,0.5
		c-0.2,0-0.3,0.1-0.3,0.2l0.1,0.2c0,0,0,0.1,0,0.2c0,0.1-0.1,0.4-0.2,1c0.3,0.2,0.4,0.4,0.4,0.5l0,0.3c0.2,0.2,0.3,0.3,0.3,0.3
		l-0.1,0.4c0,0.2-0.2,0.3-0.4,0.4c-0.2,0.1-0.5,0.2-0.8,0.2c-0.3,0-0.5,0-0.7-0.1c-0.1-0.1-0.3-0.2-0.4-0.3
		c-0.2-0.1-0.3-0.2-0.3-0.3c0-0.1-0.1-0.3-0.3-0.5c-0.2-0.2-0.3-0.6-0.3-0.9V33l0-0.5v-0.2l0.1-0.8l-0.1-0.7c0-0.1,0-0.1,0.1-0.2
		c0.1-0.1,0.1-0.2,0.1-0.3c-0.1-0.5-0.2-0.9-0.2-1l-0.5-2c0-0.1,0.1-0.2,0.2-0.4c-0.4-0.1-0.7-0.2-0.7-0.3s-0.1-0.2-0.2-0.3
		c-0.1,0-0.1-0.1-0.2-0.2l-2.4-1.2c0,0,0-0.1-0.1-0.2s-0.2-0.2-0.4-0.2s-0.3-0.1-0.4-0.1l-0.2-0.2l-0.9-0.1l-0.4,0.2
		c0,0.1-0.1,0.3-0.2,0.5c-0.2,0.2-0.3,0.5-0.5,1c-0.1,0.3-0.3,0.5-0.4,0.5l-0.1,0.2V27c0,0.1-0.1,0.2-0.2,0.3
		c-0.1,0.1-0.3,0.2-0.4,0.2c0,0,0.1,0.1,0.1,0.2v0.1L46,28.2c0,0-0.1,0.1-0.1,0.4c0,0.2-0.2,0.4-0.5,0.7l-0.3,0.3V30l-0.3,0.7
		c-0.2,0.6-0.4,1-0.5,1.3c-0.2,0-0.2,0.1-0.2,0.2l0.1,0.3c0,0,0,0.1,0,0.1c0,0.2-0.1,0.4-0.3,0.4c-0.2,0-0.3,0.1-0.4,0.2
		c0.1,0.4,0.2,0.6,0.2,0.6c0,0.1-0.1,0.2-0.3,0.3h0l0.1,0.7C43.1,35,43,35.2,43,35.4c0,0,0.1,0.1,0.1,0.3v0.2c0,0.5-0.2,0.8-0.6,0.8
		c-0.2,0-0.5-0.3-1.1-0.9s-0.8-1.2-0.8-1.9l0.1-0.9c0.1-0.7,0.2-1.1,0.3-1.2c0.1-0.1,0.2-0.3,0.3-0.6c0.1-0.2,0.2-0.4,0.2-0.4
		c0.1-0.1,0.1-0.2,0.2-0.3l0.2-0.3l0.1-0.3l0.2-0.4c0.3-0.5,0.4-0.7,0.4-0.8c0-0.1,0.1-0.3,0.3-0.4c0.2-0.2,0.3-0.4,0.3-0.6
		c0-0.2,0.2-0.5,0.5-0.9l0.1-0.2c0.6-1.2,1-1.9,1.3-2.1c-0.1-0.3-0.2-0.4-0.3-0.4c-0.1,0-0.1,0-0.3,0c-0.1,0-0.2,0-0.3,0
		S44,24,43.8,24s-0.3,0.1-0.6,0.1c-0.1,0-0.3,0-0.4,0.1h0c-0.1,0-0.2,0-0.3-0.1s-0.2-0.2-0.2-0.2c0-0.3,0.2-0.6,0.7-0.9
		c0.5-0.3,1-0.6,1.7-0.8c0.1,0,0.3-0.1,0.4-0.3s0.5-0.3,0.9-0.3l0.3-0.2l0.2,0c0.3-0.4,0.5-0.7,0.7-1.1v-0.2c0-0.1,0.1-0.2,0.4-0.6
		s0.4-0.5,0.5-0.6v-0.3c0.2-0.2,0.4-0.5,0.5-0.8s0.3-0.6,0.7-1l0.3-0.6c0.3-0.6,0.6-1,0.9-1.4c0.3-0.4,0.5-0.8,0.6-1.1l0.3-0.4
		l0.2-0.6c0.2-0.6,0.4-0.9,0.5-1c0-0.4-0.1-0.6-0.2-0.6l-1.5,0.3l-0.4,0c-0.3,0.2-0.6,0.3-0.8,0.3s-0.6,0.2-0.9,0.5l-0.4-0.1
		c-0.1,0-0.2,0.1-0.3,0.2s-0.5,0.3-1.1,0.4c-0.1,0.2-0.1,0.3-0.2,0.3h-0.4L45,13.8c-0.4,0.2-0.7,0.4-0.8,0.6s-0.3,0.2-0.4,0.2
		c-0.2,0-0.7,0.6-1.4,1.8l-0.3,0.2L42,16.8c-0.1,0-0.2,0.1-0.4,0.1c-0.2,0.3-0.4,0.4-0.6,0.4c-0.1,0-0.4-0.1-0.7-0.3
		s-0.6-0.6-0.6-1.1c0-0.6,0.9-1.3,2.6-2.2l0.5-0.3c0.1,0,0.3-0.1,0.6-0.1c0.4-0.3,0.8-0.6,1.2-0.8s0.7-0.3,0.8-0.4s0.5-0.3,0.9-0.4
		s0.7-0.3,0.8-0.4s0.2-0.3,0.2-0.3l0.4,0L47.8,10.9z M44.8,23.1c0.1,0,0.2,0,0.4,0c0.1,0,0.2,0,0.2-0.1c0-0.1,0-0.1-0.1-0.1
		C45,22.9,44.9,23,44.8,23.1z M51.8,24.4l0.3,0.2c0.1,0,0.1,0,0.2,0c0.2,0,0.6,0.2,1.1,0.5s0.9,0.6,0.9,0.8s0.2,0.4,0.3,0.6
		c0.1,0.3,0.3,0.6,0.4,1c0.1,0.4,0.2,0.7,0.3,0.8c0.1-0.2,0.2-0.4,0.3-0.6l0.7-1.7c0,0,0.1-0.1,0.2-0.3l0.2-0.3l0.2,0
		c0-0.1,0-0.1,0-0.2c0-0.2,0.2-0.4,0.5-0.7l0.2-0.6l0.5-0.6c0.1-0.2,0.2-0.5,0.3-0.7s0.2-0.4,0.3-0.4l0.2-0.1c0.1-0.5,0.2-0.8,0.4-1
		l0-0.1c-0.1,0-0.1,0-0.1,0c0,0-0.1-0.1-0.2-0.1h-0.1c-0.1,0-0.3,0-0.5,0.1h-0.2c0,0-0.1,0-0.2-0.1h-0.1l-0.5,0.2h-0.1L57,21
		c-0.2,0-0.3,0-0.5,0c-0.1,0-0.2,0-0.4,0.1c-0.2,0.1-0.4,0.1-0.6,0.1l-0.9,0.1l-0.5,0h-0.4l-0.4-0.2c-0.2,0.3-0.5,0.4-0.8,0.4
		l-0.2,0h0l-0.4-0.1c-0.1,0-0.1,0-0.2-0.1s-0.1-0.1-0.1-0.1c-0.2,0.4-0.4,0.6-0.7,0.6s-0.6,0.1-0.8,0.3c-0.3,0.1-0.5,0.1-0.6,0.1
		c0,0-0.1,0-0.2-0.1c-0.6,0.9-0.8,1.3-0.8,1.4c0,0.1,0.2,0.1,0.6,0.1l0.3,0.1c0.1,0.1,0.2,0.1,0.4,0.2c0.2,0,0.4,0.1,0.7,0.2
		l0.3-0.1c0,0,0.1,0,0.4,0.1L51.8,24.4z"/>
	<path class="st1" d="M67.2,33.3l0.4,0.3c0.2,0.1,0.3,0.3,0.3,0.7c0,0.1,0,0.2-0.1,0.3c-0.1,0.1-0.1,0.2-0.2,0.3
		c-0.5,0.9-1,1.3-1.6,1.3c-0.2,0-0.5-0.2-0.9-0.5c-0.4-0.4-0.7-0.7-0.8-1c-0.1-0.3-0.2-0.5-0.3-0.5c-0.1-0.1-0.1-0.1-0.1-0.2
		c0-0.1,0.1-0.3,0.2-0.5c0.1-0.2,0.2-0.4,0.2-0.6c0.1-0.3,0.2-0.4,0.4-0.6c0.2-0.1,0.4-0.2,0.5-0.4c0.1-0.1,0.2-0.2,0.4-0.2
		c0.1,0,0.2,0,0.3,0.1c0.1,0.1,0.3,0.2,0.4,0.3c0.2,0.1,0.4,0.3,0.6,0.6L67.2,33.3z"/>
	<path class="st1" d="M85.4,16.2l0.3-0.3c0.2-0.8,0.5-1.3,1-1.4l0.1-0.1c-0.2-0.2-0.2-0.3-0.2-0.4c0-0.1,0-0.1,0.1-0.3l0.1-0.4
		c0-0.1,0.1-0.4,0.3-0.7c0.2-0.3,0.3-0.8,0.3-1.6v-0.1c0-0.3-0.1-0.7-0.4-1.4V9.4c0-0.2,0.1-0.5,0.2-0.7c0.2-0.2,0.3-0.4,0.5-0.4
		c1,0,1.6,0.2,1.8,0.5s0.4,0.6,0.5,0.8c0.4,0.2,0.5,0.8,0.5,1.5c0,0.5-0.1,0.8-0.3,1c-0.2,0.2-0.3,0.3-0.4,0.5
		c-0.1,0.2-0.2,0.3-0.3,0.5s-0.2,0.2-0.2,0.3l0.1,0.4c0,0.3-0.1,0.5-0.3,0.6v0.1h0.2c0.1,0,0.2,0,0.3-0.1c0.1-0.1,0.3-0.2,0.6-0.2
		s0.5-0.2,0.6-0.3s0.2-0.2,0.3-0.2s0.2-0.1,0.3-0.2l1.2-0.6c0.4-0.2,0.8-0.4,1.2-0.6c0.4-0.2,0.7-0.3,0.9-0.5l0.7-0.2l0.3,0
		c0.1,0,0.1-0.1,0.3-0.3s0.2-0.3,0.3-0.3l0.2,0c0.2-0.1,0.4-0.2,0.4-0.2l0.3,0l0.5-0.4l0.4,0c0.4-0.3,0.8-0.5,1.2-0.4
		c0.1,0,0.2-0.1,0.3-0.3s0.3-0.2,0.5-0.2c0,0,0.1-0.1,0.3-0.2l0.3-0.2c0.1-0.1,0.2-0.2,0.4-0.3l0.5-0.2c0.1-0.1,0.2-0.1,0.3-0.1
		l0.3,0.1c0.4-0.3,0.7-0.5,0.9-0.5c0.7,0,1.1,0.3,1.1,1c0,0.6-0.3,1.2-0.8,1.7l-1.2,0.7c0,0-0.2,0-0.5,0.1c-0.3,0.1-1,0.3-1.9,0.8
		l-0.3,0c-0.1,0.1-0.3,0.2-0.4,0.2l-0.2,0c-0.3,0.1-0.5,0.2-0.7,0.3s-0.4,0.1-0.7,0.3c-0.3,0.2-0.6,0.3-1,0.4
		c-0.4,0.1-0.7,0.2-0.9,0.3s-0.4,0.2-0.5,0.2h-0.2c-0.1,0-0.6,0.2-1.4,0.5c-0.2,0.1-0.4,0.1-0.5,0.2s-0.3,0.1-0.7,0.2l-0.9,0.5
		c-0.1,0-0.3,0.1-0.8,0.4h-0.4c0,0-0.3,0.1-0.7,0.4c0,0-0.1,0-0.1,0h0l-0.3,0c-0.1,0-0.1,0.1-0.3,0.2s-0.3,0.2-0.5,0.3
		S88,17,88,17.1l-0.3,0.6c-0.1,0.2-0.2,0.3-0.3,0.4s-0.2,0.3-0.3,0.7L85.9,21l-0.2,0.1c0.1,0.2,0.1,0.3,0.1,0.4
		c-0.1,0.1-0.1,0.2-0.2,0.5s-0.2,0.4-0.3,0.5s-0.2,0.3-0.4,0.7c1.1,0.7,1.7,1,1.8,1l0.1,0.1v0.1c0,0.1,0.1,0.2,0.2,0.3
		s0.3,0.1,0.4,0.2c0.1,0.1,0.3,0.1,0.6,0.1l0.5,0.5l0.2,0c0.1,0,0.3,0.1,0.5,0.2s0.4,0.3,0.7,0.4c0.2,0.1,0.4,0.2,0.5,0.3
		s0.3,0.2,0.5,0.2c0.2,0.1,0.4,0.1,0.4,0.2c0,0.2,0.3,0.4,0.9,0.5c0.4,0.2,0.6,0.4,0.7,0.5c0.1,0.1,0.2,0.2,0.4,0.3s0.4,0.2,0.6,0.3
		l0.5,0.2c0.1,0.1,0.1,0.1,0.1,0.2s0.2,0.2,0.5,0.3c0.3,0.1,0.5,0.2,0.5,0.3s0.2,0.2,0.3,0.3l0.4-0.1c0.7,0.3,1.1,0.6,1.2,0.7
		c0.1,0,0.2,0.1,0.4,0.1s0.4,0.2,0.4,0.3s0.2,0.2,0.5,0.3c0.7,0.2,1.1,0.8,1.2,1.6c-0.1,0.3-0.3,0.6-0.4,0.8
		c-0.3,0.1-0.4,0.2-0.5,0.2s-0.3,0.1-0.7,0.2l-0.2,0.1c0,0,0,0-0.1,0c-0.6,0-1-0.3-1.1-0.9c0-0.1-0.1-0.2-0.2-0.2
		C96.6,33,96.5,33,96.5,33c-0.2,0-0.3-0.1-0.5-0.2c-0.2-0.1-0.4-0.3-0.6-0.5c-0.2-0.2-0.5-0.5-0.9-0.7c-0.3-0.2-0.6-0.4-0.8-0.5
		c-0.5-0.5-1.3-1-2.2-1.4c-0.1-0.1-0.2-0.1-0.3-0.3s-0.5-0.3-1-0.6c-0.5-0.3-1-0.7-1.5-1.4l-0.2-0.1c-0.2-0.2-0.4-0.3-0.6-0.5
		c-0.2-0.2-0.4-0.3-0.7-0.3c-0.3-0.2-0.5-0.3-0.7-0.5c-1.4-0.9-2.2-1.4-2.4-1.5c0,0.6-0.1,0.9-0.3,0.9l-0.2,0
		c-0.1,0-0.1,0.2-0.2,0.6v0.3l-0.3,0.8C83,27.6,82.8,28,82.6,28v0.3c-0.3,0.4-0.4,0.7-0.5,1c-0.1,0.2-0.2,0.5-0.3,0.8
		c-0.1,0.3-0.2,0.6-0.3,1s-0.3,1-0.7,1.9v0l0.1,0.3v0.2c0,0.1-0.1,0.3-0.2,0.6c0.1,0.3,0.2,0.4,0.2,0.4c0,0.1,0,0.2-0.1,0.3
		c-0.1,0.1-0.1,0.3-0.2,0.4c-0.1,0.1-0.3,0.2-0.7,0.4c-0.1,0-0.2-0.1-0.4-0.3c-0.5-0.1-0.8-0.3-1-0.6c0,0,0-0.1-0.1-0.3
		c-0.1-0.2-0.1-0.4-0.1-0.5c0,0,0-0.2-0.1-0.5C78,33.1,78,32.9,78,32.8c0-0.8,0.2-1.5,0.6-2l0-0.3c0-0.1,0.1-0.3,0.3-0.6l0.3-0.6
		l0-0.3c0-0.2,0.1-0.4,0.2-0.5s0.3-0.5,0.5-1.1l0.2-0.3c0.1-0.3,0.2-0.5,0.3-0.5c0,0,0-0.1,0-0.2l0-0.2c0.1-0.1,0.1-0.2,0.1-0.3
		c0.1,0,0.1-0.1,0.3-0.2c0.1-0.4,0.3-0.8,0.5-1.2l0.6-1.3c0-0.1,0.1-0.1,0.1-0.1c0-0.1-1-0.8-2.9-2.2c-0.2-0.2-0.3-0.4-0.3-0.6
		c0-0.4,0.4-0.9,1.3-1.3c0.1,0,0.4-0.2,0.8-0.5s0.8-0.5,1-0.5c0.1,0,0.4-0.2,1-0.5c0.6-0.4,1-0.5,1-0.6s0.1,0,0.1-0.1
		s0.1-0.1,0.3-0.2c0.2-0.1,0.4-0.2,0.6-0.3C85.3,16.2,85.4,16.2,85.4,16.2z M82.3,21.6l0.2,0.1h0.1c0.1,0,0.4-0.6,0.8-1.8l0.6-1.4
		l-0.2,0c-0.1,0-0.2,0.1-0.3,0.2c-1.2,0.5-2,0.8-2.3,1l-0.2,0.1c-0.3,0.1-0.4,0.4-0.4,0.7C81.2,21,81.7,21.3,82.3,21.6z"/>
</g>
<g class="st0">
	<path class="st1" d="M99.2,28.4c0-0.1-0.1-0.3-0.1-0.4s0-0.2,0-0.2c0-0.4,0.1-0.8,0.2-1.1s0.3-0.6,0.5-0.8c0.1-0.1,0.2-0.1,0.4-0.2
		c0.2-0.1,0.5-0.2,0.8-0.4c0.2-0.1,0.4-0.3,0.6-0.4c0.1-0.2,0.2-0.4,0.2-0.6c0-0.2,0.1-0.4,0.2-0.6s0.3-0.5,0.4-0.8
		c0.1-0.1,0.2-0.5,0.5-1.3s0.6-2,1.1-3.6c0.1-0.5,0.3-0.9,0.4-1.2c0.1-0.4,0.2-0.7,0.3-0.9c0.4-1.1,0.8-1.8,1-2.2s0.5-0.6,0.6-0.8
		v-0.1l-0.6-1l0.8-0.9l1-0.2c0.2,0,0.4-0.2,0.5-0.5s0.4-0.7,0.8-1.1c0.1,0,0.2-0.1,0.4-0.2s0.5-0.3,0.8-0.6c0.3-0.2,0.5-0.4,0.7-0.5
		s0.3-0.2,0.4-0.2c0.4,0,0.6,0.1,0.8,0.2c0.2,0.1,0.2,0.3,0.2,0.6c0,0.3-0.1,0.7-0.4,1.2c-0.3,0.5-0.4,1-0.4,1.2
		c0,0.1,0,0.2,0.1,0.3s0.1,0.1,0.2,0.2l2.3,1.3c0.1,0.1,0.2,0.3,0.4,0.6c0.1,0.4,0.2,0.8,0.3,1.5c0.1,0.5,0.1,1,0.2,1.3
		c0,0.3,0.1,0.6,0.1,0.8c-0.1,0.6-0.2,1.1-0.3,1.7c0.1,0.7,0.3,1.5,0.4,2.3c-0.1,0.8-0.2,1.5-0.3,2.3c0,0.1,0,0.1,0,0.2
		s0.1,0.1,0.1,0.1c0.2,0,0.4,0.1,0.5,0.2c0.1,0.1,0.2,0.2,0.2,0.4c0,0.2,0,0.4-0.1,0.6c-0.1,0.1-0.2,0.2-0.3,0.3
		c-0.2,0.1-0.3,0.2-0.4,0.3c-0.1,0.1-0.2,0.1-0.2,0.2l0.3,1.2l-0.4,2.8c0,0.2,0,0.5-0.1,0.9s-0.1,0.8-0.2,1.3
		c-0.1,0.4-0.2,0.6-0.3,0.9c-0.1,0.2-0.1,0.4-0.1,0.5c0.1,0.2,0.1,0.5,0.2,0.7c-0.1,0.4-0.2,0.7-0.2,1.1c-0.1,0.4-0.2,0.7-0.2,1
		c-0.1,0.5-0.3,0.8-0.6,1c-0.2,0.2-0.5,0.3-0.8,0.3c-0.2,0-0.3-0.1-0.4-0.2c-0.1-0.2-0.1-0.4-0.1-0.7c0-0.1,0-0.3,0.1-0.6
		c0-0.2,0.1-0.4,0.1-0.6c0-0.1,0-0.2,0-0.4c0-0.2,0-0.3,0-0.4c0-0.4,0-0.9,0.1-1.7c0.1-0.8,0.1-1.4,0.1-1.8
		c-0.1-0.2-0.1-0.4-0.2-0.7c0-0.2,0.1-0.5,0.1-0.8c0-0.3,0-0.5,0-0.7l0.3-0.5l-0.3-1.8l-0.1-0.1c-0.1,0-0.2,0-0.3,0.1
		c-0.1,0.1-0.3,0.2-0.6,0.3c-0.2,0.1-0.4,0.1-0.7,0.2c-0.3,0.1-0.8,0.1-1.3,0.1c-0.2,0.1-0.5,0.2-0.7,0.3c-0.3,0.1-0.7,0.2-1.1,0.3
		c-0.5,0.2-1,0.4-1.6,0.6c-0.4,0.2-0.7,0.3-1,0.4c-0.3,0.1-0.5,0.1-0.7,0.1c-0.2,0-0.3,0.1-0.4,0.2s-0.2,0.3-0.3,0.5
		c0,0.2-0.1,0.5-0.3,0.9c-0.1,0.4-0.3,0.8-0.6,1.4c-0.1,0.1-0.1,0.4-0.2,0.7c-0.1,0.3-0.2,0.7-0.3,1.1c-0.1,0.2-0.2,0.4-0.3,0.6
		s-0.2,0.5-0.4,0.9c0,0.2,0,0.3,0,0.6c0,0.2-0.1,0.5-0.1,0.8c-0.1,0.2-0.2,0.4-0.3,0.7c-0.1,0.3-0.3,0.6-0.4,0.9
		c-0.1,0.2-0.3,0.4-0.4,0.5s-0.4,0.1-0.8,0.1c-0.2,0-0.4-0.1-0.5-0.2c-0.1-0.1-0.2-0.4-0.2-0.7c0-0.3,0-0.7,0.1-1.2
		c0.1-0.4,0.2-0.9,0.4-1.4c0.2-0.7,0.3-1.2,0.5-1.7c0.1-0.4,0.2-0.7,0.2-1c0-0.1,0.1-0.3,0.2-0.5s0.2-0.5,0.3-0.9
		c0.1-0.3,0.2-0.7,0.3-1.1l-0.1-0.2l-0.6,0.1c-0.1,0-0.2-0.1-0.3-0.2S99,29.3,99,29.1c0-0.1,0-0.2,0-0.3S99.1,28.5,99.2,28.4z
		 M106.3,24.8c0.3,0,0.7-0.1,1.3-0.2c0.6-0.1,1-0.2,1.3-0.2c0.2,0,0.4,0.1,0.5,0.1c0.3-0.1,0.6-0.1,1-0.2s0.6-0.2,1-0.2
		c0.1,0,0.2-0.1,0.3-0.1c0.1-0.1,0.1-0.2,0.1-0.3c0-0.4,0-0.7,0-0.8c0-0.2,0-0.5,0-0.8c0-0.3,0.1-0.6,0.1-0.9l-0.2-0.9l0.1-0.8
		c-0.1-0.3-0.1-0.6-0.1-0.8c0-0.3,0-0.5,0-0.6c0-0.1-0.1-0.1-0.1-0.3c-0.1-0.1-0.1-0.2-0.2-0.4c-0.1-0.2-0.3-0.4-0.4-0.6
		s-0.3-0.4-0.4-0.6c-0.2-0.2-0.4-0.4-0.6-0.5c-0.2-0.1-0.4-0.2-0.6-0.2c-0.3,0-0.5,0.2-0.8,0.6s-0.5,1-0.8,1.9
		c0,0.1-0.1,0.3-0.3,0.6s-0.4,0.7-0.8,1.3c-0.1,0.5-0.2,1.1-0.5,1.8s-0.7,1.6-1.2,2.6c-0.1,0.1-0.1,0.2-0.1,0.2s0,0.1,0,0.2
		c0,0.1,0,0.2,0.1,0.2s0.1,0.1,0.2,0.1c0.1,0,0.3,0,0.6,0C106,24.8,106.2,24.8,106.3,24.8z"/>
	<path class="st1" d="M121.3,14.4l-0.3-1.3c0.1-0.3,0.2-0.5,0.2-0.8s0.2-0.5,0.2-0.8c0.1-0.2,0.2-0.3,0.4-0.4s0.4-0.1,0.8-0.1
		c0.1,0,0.3,0,0.5-0.1c0.2-0.1,0.4-0.1,0.5-0.1c0.1,0,0.3,0.1,0.5,0.3c0.2,0.2,0.3,0.3,0.4,0.3c0.1-0.1,0.2-0.2,0.3-0.3
		s0.3-0.4,0.5-0.6c0.2-0.2,0.3-0.4,0.5-0.5c0.2-0.1,0.3-0.2,0.5-0.3c0.2,0.1,0.4,0.2,0.6,0.3c0.1,0.1,0.2,0.1,0.2,0.2
		c0,0.1,0,0.2,0,0.3c0,0.1,0,0.2-0.1,0.4s-0.2,0.5-0.3,0.9c-0.1,0.4-0.3,0.7-0.3,1s-0.1,0.5-0.2,0.6c-0.2,0.3-0.3,0.6-0.5,0.8
		s-0.2,0.5-0.2,0.7c0,0.3,0.1,0.6,0.2,1.2s0.4,1.2,0.7,1.9c0.4,1,0.8,2.1,1.3,3.3c0.4,1.2,0.8,2.5,1.2,3.6c0.4,1.2,0.9,2.3,1.3,3.3
		c0.5,1.1,0.9,2,1.2,2.5s0.5,0.8,0.7,0.8c0.1,0,0.2-0.1,0.3-0.2c0.1-0.1,0.1-0.4,0.1-0.7c0-0.1,0-0.3,0-0.5s0.1-0.4,0.2-0.7
		c0.1-0.4,0.2-0.7,0.3-1.2c0.1-0.7,0.2-1.3,0.4-1.8s0.2-0.9,0.3-1.3c0.1-0.2,0.1-0.7,0.2-1.5s0.1-1.8,0.2-3.1c0-0.1,0-0.3,0.1-0.5
		c0-0.2,0.1-0.5,0.1-0.8c0.1-0.3,0.1-0.6,0.1-0.8s0-0.4,0-0.6c0-0.3,0-0.7-0.1-1.3s-0.1-1-0.1-1.3c0.2-0.8,0.4-1.6,0.5-2.4
		c0.1-0.7,0.3-1.2,0.4-1.7s0.2-0.8,0.3-1c0.2-0.5,0.5-0.9,0.8-1.2s0.6-0.6,1-0.8h0.2c0.1,0,0.2,0,0.3,0.1s0.1,0.1,0.1,0.3
		c-0.1,0.3-0.1,0.5-0.2,0.6c0,0.2,0.1,0.5,0.1,0.7c0,0.3-0.1,0.6-0.1,0.8c0,0.1-0.1,0.4-0.1,0.7c0,0.3,0,0.6,0,1.1
		c0,0.2,0,0.5-0.1,1s-0.1,1.2-0.2,2.1c-0.1,1.2-0.2,2.4-0.3,3.7c-0.1,1.2-0.2,2.4-0.3,3.6c-0.1,1.5-0.3,2.8-0.4,4
		c-0.2,1.2-0.4,2.3-0.7,3.2c-0.1,0.6-0.2,1.2-0.4,1.9c-0.2,0.7-0.4,1.5-0.7,2.3l-0.6,1c0,0.1-0.4,0.2-1.2,0.5s-1.2,0.4-1.3,0.4
		c-0.2,0-0.5-0.3-0.9-0.8s-0.9-1.3-1.4-2.4c-0.5-1-0.9-1.7-1.2-2.4c-0.3-0.6-0.5-1.1-0.6-1.4c0-0.1-0.1-0.3-0.1-0.4
		c-0.1-0.2-0.1-0.4-0.2-0.6c-0.3-0.6-0.6-1.3-1-2.1c-0.4-0.8-0.9-1.8-1.4-3c-0.1-0.3-0.2-0.6-0.3-0.8s-0.3-0.5-0.5-0.8l-0.1,0.1
		c-0.1,0.3-0.2,0.6-0.3,1c-0.1,0.4-0.2,0.9-0.3,1.4c-0.1,0.4-0.3,0.7-0.4,0.9c-0.2,0.8-0.4,1.6-0.7,2.5s-0.5,1.8-0.8,2.9
		c-0.1,0.3-0.2,0.7-0.2,1.1c-0.1,0.4-0.2,0.7-0.3,1.1l-0.4,0.6c-0.1,0.4-0.1,0.8-0.2,1.2c-0.1,0.3-0.2,0.7-0.3,1.1
		c-0.1,0.4-0.3,0.9-0.5,1.5c0,0.3-0.1,0.5-0.3,0.7s-0.4,0.2-0.6,0.2c0,0.1-0.1,0.1-0.2,0.2s-0.2,0.1-0.4,0.2c-0.1,0-0.2,0-0.3-0.2
		s-0.1-0.4-0.1-0.7c0-0.2,0-0.5,0.1-0.9s0.2-0.9,0.3-1.5c0.1-0.7,0.3-1.2,0.3-1.6s0.1-0.6,0.2-0.7c0.1-0.3,0.1-0.7,0.2-1.2
		c0.1-0.5,0.1-1.1,0.2-1.8c0-0.2,0.1-0.4,0.1-0.6s0.1-0.5,0.2-0.9c0.1-0.3,0.2-1,0.4-2.1s0.5-2.8,0.8-4.8
		C120.7,18.5,121,16.4,121.3,14.4z"/>
	<path class="st1" d="M153.2,9.1c0.3,0.1,0.6,0.2,0.9,0.3s0.6,0.2,0.9,0.3c0.1,0.1,0.3,0.2,0.5,0.4s0.5,0.6,0.8,1
		c0.4,0.5,0.6,0.8,0.7,0.9s0.2,0.5,0.4,1.1c0.1,0.2,0.3,0.6,0.6,1.2s0.3,1,0.3,1.3c0,0.5-0.4,1-1.1,1.7s-1.3,1-1.7,1
		c-0.3,0-0.5-0.1-0.6-0.2s-0.2-0.4-0.2-0.7c-0.1-0.5-0.2-1-0.3-1.3c-0.4-1.4-0.8-2.5-1.5-3.2s-1.3-1.1-2.2-1.1
		c-0.4,0-0.9,0.1-1.3,0.2s-0.8,0.4-1.2,0.7c-0.2,0.1-0.4,0.4-0.7,0.7s-0.7,0.8-1.1,1.3c-0.1,0.1-0.1,0.2-0.2,0.3s-0.2,0.3-0.3,0.5
		c-0.1,0.2-0.3,0.5-0.5,0.8s-0.4,0.7-0.7,1c-0.1,0.3-0.2,0.7-0.4,0.9s-0.3,0.6-0.4,0.8c0,0.1-0.1,0.2-0.1,0.3s-0.1,0.3-0.1,0.6
		c-0.1,0.3-0.2,0.6-0.3,1s-0.2,0.7-0.4,1.2c-0.2,1.4-0.4,2.5-0.4,3.4s-0.1,1.4-0.1,1.6c0,0.6,0,1.1,0.1,1.7s0.3,1.1,0.5,1.7
		c0.2,0.4,0.3,0.7,0.4,1s0.3,0.5,0.4,0.6c0.2,0.2,0.4,0.3,0.7,0.4s0.6,0.2,1,0.2c0.5,0,1-0.1,1.5-0.3s0.9-0.4,1.3-0.8
		c0.1-0.1,0.4-0.3,0.7-0.7s0.8-0.9,1.4-1.5c0.1-0.1,0.3-0.3,0.5-0.4s0.4-0.4,0.6-0.6c0.2-0.3,0.5-0.7,0.7-1s0.4-0.7,0.7-1
		c0.3-0.4,0.6-0.6,0.9-0.8s0.7-0.3,1.1-0.3c0.5,0,0.9,0.1,1.2,0.4s0.4,0.6,0.4,1.1c0,0.2,0,0.4-0.1,0.7c-0.1,0.3-0.2,0.5-0.2,0.7
		c0,0.2-0.1,0.5-0.1,0.9c-0.1,0.3-0.1,0.8-0.2,1.2c0,0.6-0.1,1.1-0.2,1.6c-0.1,0.5-0.2,0.9-0.4,1.2c-0.2,0.4-0.4,1.2-0.5,2.1
		s-0.3,1.7-0.6,2.1c-0.1,0.1-0.2,0.3-0.2,0.6s-0.1,0.6-0.2,1.1c-0.1,0.3-0.1,0.5-0.2,0.7c-0.1,0.2-0.2,0.4-0.3,0.5
		c-0.1,0.1-0.2,0.2-0.4,0.3s-0.4,0.2-0.8,0.3c-0.1,0.3-0.1,0.5-0.3,0.7s-0.3,0.2-0.5,0.2c-0.2,0-0.3-0.1-0.4-0.2s-0.1-0.4-0.1-0.8
		c0-0.1,0-0.3,0.1-0.6s0.1-0.6,0.2-1.1c0.1-0.2,0.1-0.5,0.1-0.8s0.1-0.8,0.1-1.3c0-0.3,0.1-0.7,0.2-1.2s0.3-1.2,0.5-2.1l-0.3-1.3
		c0.1-0.2,0.1-0.3,0.1-0.5c0-0.1,0-0.2-0.1-0.2c0,0-0.1-0.1-0.2-0.1c-0.5,0.3-0.8,0.6-1.1,0.9c-0.7,0.6-1.2,1-1.7,1.4
		s-0.8,0.6-1.1,0.8c-0.5,0.3-1,0.6-1.6,0.8c-0.5,0.2-1.1,0.4-1.6,0.4l-0.9-0.2c-0.3,0-0.5,0.1-0.7,0.1c-0.3,0-0.6-0.1-0.9-0.2
		c-0.3-0.1-0.7-0.4-1.1-0.6c-0.3-0.3-0.6-0.6-0.9-0.9c-0.3-0.4-0.5-0.8-0.7-1.3c-0.1-0.2-0.2-0.5-0.3-0.9s-0.3-1.1-0.5-1.8
		c0.1-0.3,0.2-0.7,0.2-1s0-0.8,0-1.2l0.4-2.9c0.3-2.4,0.9-4.6,1.8-6.5s2.1-3.6,3.6-5c0.5-0.5,0.9-0.9,1.2-1.2s0.6-0.5,0.6-0.6
		c0.3-0.2,0.6-0.4,0.9-0.7s0.7-0.4,1.1-0.7c0.2-0.1,0.4-0.2,0.7-0.4s0.6-0.3,0.9-0.4l1.8-0.2l0.6,0.2L153.2,9.1z"/>
</g>
<g class="st0">
	<path class="st2" d="M1,46.3h2v-3c-0.3,0.1-0.7,0.1-1,0.1l-0.8,0L1,42.8l0.9,0.1c0.3,0,0.9,0,1.1-0.3c0.1-0.1,0.1-0.2,0.3-0.2
		c0.3,0,0.3,0.3,0.3,0.5v3.3h1.8v0.6H1V46.3z M3.2,41.7c-0.3,0-0.6-0.3-0.6-0.6c0-0.4,0.3-0.6,0.6-0.6c0.3,0,0.6,0.3,0.6,0.6
		C3.9,41.4,3.6,41.7,3.2,41.7z"/>
	<path class="st2" d="M7.8,46.3h0.7v0.6h-2v-0.6h0.7v-3l-0.7,0.1l-0.1-0.5c0.3,0,0.6-0.1,0.9-0.3c0.1-0.1,0.1-0.2,0.3-0.2
		c0.3,0,0.3,0.3,0.3,0.5v0.1c0.5-0.2,1-0.5,1.6-0.5c0.5,0,1,0.2,1.2,0.6c0.2,0.3,0.2,0.8,0.2,1.2v1.9h0.7v0.6h-2v-0.6h0.7v-1.8
		c0-0.6,0-1.3-0.8-1.3c-0.6,0-1.1,0.3-1.6,0.6V46.3z"/>
	<path class="st2" d="M20.6,42.7H23v0.6h-2.3v2c0,0.5-0.1,1.1,0.6,1.1c0.5,0,1.2-0.2,1.7-0.3l0.2,0.5c-0.6,0.2-1.4,0.4-2,0.4
		c-0.7,0-1.2-0.4-1.2-1.4v-2.3h-1.4v-0.6H20v-1.1h0.6V42.7z"/>
	<path class="st2" d="M25.8,43.1c0.5-0.2,1-0.5,1.6-0.5c0.5,0,1,0.2,1.2,0.6c0.2,0.3,0.2,0.8,0.2,1.2v1.9h0.7v0.6h-2v-0.6h0.7v-1.8
		c0-0.6,0-1.3-0.8-1.3c-0.6,0-1.1,0.3-1.6,0.6v2.6h0.7v0.6h-2v-0.6h0.7v-5.1l-0.9,0.1l-0.1-0.5c0.3-0.1,0.8,0,1-0.3
		c0.1-0.1,0.1-0.2,0.3-0.2c0.3,0,0.3,0.3,0.3,0.5V43.1z"/>
	<path class="st2" d="M31.5,45c0.1,0.9,0.7,1.4,1.8,1.4c0.6,0,1.2-0.2,1.8-0.5l0.2,0.5c-0.6,0.3-1.4,0.5-2.1,0.5
		c-1.8,0-2.4-1.2-2.4-2.1c0-1.3,0.9-2.3,2.2-2.3c1.2,0,2,0.8,2,2c0,0.1,0,0.3,0,0.4H31.5z M34.5,44.5c0-0.8-0.6-1.3-1.4-1.3
		c-0.8,0-1.4,0.6-1.6,1.3H34.5z"/>
	<path class="st2" d="M43.8,46.3h0.7v0.6h-2v-0.6h0.7v-3l-0.7,0.1l-0.1-0.5c0.3,0,0.6-0.1,0.9-0.3c0.1-0.1,0.1-0.2,0.3-0.2
		c0.3,0,0.3,0.3,0.3,0.5v0.1c0.5-0.2,1-0.5,1.6-0.5c0.5,0,1,0.2,1.2,0.6c0.2,0.3,0.2,0.8,0.2,1.2v1.9h0.7v0.6h-2v-0.6h0.7v-1.8
		c0-0.6,0-1.3-0.8-1.3c-0.6,0-1.1,0.3-1.6,0.6V46.3z"/>
	<path class="st2" d="M51.9,46.5c-0.6,0.2-1.2,0.4-1.8,0.4c-0.7,0-1.4-0.3-1.4-1.1c0-0.8,0.6-1.1,1.3-1.3c0.6-0.1,1.2-0.2,1.9-0.2
		v-0.3c0-0.6,0.1-0.9-0.7-0.9c-0.5,0-1,0.1-1.4,0.4v0.6h-0.6v-1c0.6-0.3,1.3-0.6,1.9-0.6c1,0,1.4,0.3,1.4,1.2v2.4h0.8v0.6h-1.4V46.5
		z M51.9,44.9c-0.6,0-1.2,0.1-1.7,0.2c-0.4,0.1-0.8,0.2-0.8,0.7c0,0.5,0.4,0.6,0.8,0.6c0.6,0,1.2-0.2,1.8-0.5V44.9z"/>
	<path class="st2" d="M55.5,46.3h0.4v0.6h-1.6v-0.6h0.6v-3l-0.7,0.1l-0.1-0.5c0.3,0,0.6-0.1,0.9-0.3c0.1-0.1,0.1-0.2,0.3-0.2
		c0.3,0,0.3,0.3,0.3,0.5c0.3-0.2,0.6-0.3,0.9-0.3c0.3,0,0.6,0.1,0.7,0.4c0.3-0.2,0.7-0.4,1.1-0.4c0.4,0,0.7,0.2,0.8,0.6
		c0.1,0.2,0.1,0.5,0.1,0.8v2.3h0.6v0.6h-1.6v-0.6h0.4V44c0-0.3,0.1-0.8-0.4-0.8c-0.3,0-0.6,0.2-0.9,0.4v2.7h0.4v0.6h-1.4v-0.6h0.4
		V44c0-0.3,0-0.8-0.3-0.8c-0.3,0-0.6,0.2-0.9,0.4V46.3z"/>
	<path class="st2" d="M61.5,45c0.1,0.9,0.7,1.4,1.8,1.4c0.6,0,1.2-0.2,1.8-0.5l0.2,0.5c-0.6,0.3-1.4,0.5-2.1,0.5
		c-1.8,0-2.4-1.2-2.4-2.1c0-1.3,0.9-2.3,2.2-2.3c1.2,0,2,0.8,2,2c0,0.1,0,0.3,0,0.4H61.5z M64.5,44.5c0-0.8-0.6-1.3-1.4-1.3
		c-0.8,0-1.4,0.6-1.6,1.3H64.5z"/>
	<path class="st2" d="M72.8,44.8c0-1.2,0.9-2.2,2.2-2.2c1.2,0,2.2,0.9,2.2,2.2c0,1.2-0.9,2.2-2.2,2.2C73.8,47,72.8,46,72.8,44.8z
		 M76.5,44.8c0-0.9-0.6-1.6-1.5-1.6s-1.5,0.7-1.5,1.6c0,0.9,0.6,1.6,1.5,1.6S76.5,45.7,76.5,44.8z"/>
	<path class="st2" d="M82.9,43.3h-2v3h1.8v0.6h-3.6v-0.6h1.2v-3h-1.5v-0.6h1.5v-0.6c0-1.1,0.4-1.5,1.3-1.5c0.7,0,1.5,0.2,2.1,0.6
		l-0.4,0.5c-0.5-0.4-1.1-0.5-1.7-0.5c-0.7,0-0.7,0.5-0.7,1v0.5h2V43.3z"/>
	<path class="st2" d="M91.5,46.3h0.4v0.6h-1.6v-0.6h0.6v-3l-0.7,0.1l-0.1-0.5c0.3,0,0.7-0.1,0.9-0.3c0.1-0.1,0.1-0.2,0.3-0.2
		c0.3,0,0.3,0.3,0.3,0.5c0.3-0.2,0.6-0.3,0.9-0.3c0.3,0,0.6,0.1,0.8,0.4c0.3-0.2,0.7-0.4,1.1-0.4c0.4,0,0.8,0.2,0.8,0.6
		c0.1,0.2,0.1,0.5,0.1,0.8v2.3h0.6v0.6h-1.6v-0.6h0.4V44c0-0.3,0.1-0.8-0.4-0.8c-0.3,0-0.6,0.2-0.9,0.4v2.7h0.4v0.6h-1.4v-0.6h0.4
		V44c0-0.3,0-0.8-0.3-0.8c-0.3,0-0.7,0.2-0.9,0.4V46.3z"/>
	<path class="st2" d="M98.5,42.7v0.6h-0.8l1.3,2.6l1.2-2.6h-0.8v-0.6h2.1v0.6h-0.6L99,47.4c-0.3,0.7-0.6,1.5-1.6,1.5
		c-0.4,0-0.8-0.1-1.1-0.4l0.2-0.5c0.2,0.2,0.6,0.3,0.9,0.3c0.5,0,0.8-0.7,1-1.1l0.3-0.7L97,43.3h-0.6v-0.6H98.5z"/>
	<path class="st2" d="M112.9,43.3h-2v3h1.8v0.6h-3.6v-0.6h1.2v-3h-1.5v-0.6h1.5v-0.6c0-1.1,0.4-1.5,1.3-1.5c0.7,0,1.5,0.2,2.1,0.6
		l-0.4,0.5c-0.5-0.4-1.1-0.5-1.7-0.5c-0.7,0-0.7,0.5-0.7,1v0.5h2V43.3z"/>
	<path class="st2" d="M117.9,46.5c-0.6,0.2-1.2,0.4-1.8,0.4c-0.7,0-1.4-0.3-1.4-1.1c0-0.8,0.6-1.1,1.3-1.3c0.6-0.1,1.2-0.2,1.9-0.2
		v-0.3c0-0.6,0.1-0.9-0.7-0.9c-0.5,0-1,0.1-1.4,0.4v0.6h-0.6v-1c0.6-0.3,1.3-0.6,1.9-0.6c1,0,1.4,0.3,1.4,1.2v2.4h0.8v0.6h-1.4V46.5
		z M117.9,44.9c-0.6,0-1.2,0.1-1.7,0.2c-0.4,0.1-0.8,0.2-0.8,0.7c0,0.5,0.4,0.6,0.8,0.6c0.6,0,1.2-0.2,1.8-0.5V44.9z"/>
	<path class="st2" d="M122.6,42.7h2.3v0.6h-2.3v2c0,0.5-0.1,1.1,0.6,1.1c0.5,0,1.2-0.2,1.7-0.3l0.2,0.5c-0.6,0.2-1.4,0.4-2,0.4
		c-0.7,0-1.2-0.4-1.2-1.4v-2.3h-1.4v-0.6h1.4v-1.1h0.6V42.7z"/>
	<path class="st2" d="M127.8,43.1c0.5-0.2,1-0.5,1.6-0.5c0.5,0,1,0.2,1.2,0.6c0.2,0.3,0.2,0.8,0.2,1.2v1.9h0.7v0.6h-2v-0.6h0.7v-1.8
		c0-0.6,0-1.3-0.8-1.3c-0.6,0-1.1,0.3-1.6,0.6v2.6h0.7v0.6h-2v-0.6h0.7v-5.1l-0.9,0.1l-0.1-0.5c0.3-0.1,0.8,0,1-0.3
		c0.1-0.1,0.1-0.2,0.3-0.2c0.3,0,0.3,0.3,0.3,0.5V43.1z"/>
	<path class="st2" d="M133.5,45c0.1,0.9,0.7,1.4,1.8,1.4c0.6,0,1.2-0.2,1.8-0.5l0.2,0.5c-0.6,0.3-1.4,0.5-2.1,0.5
		c-1.8,0-2.4-1.2-2.4-2.1c0-1.3,0.9-2.3,2.2-2.3c1.2,0,2,0.8,2,2c0,0.1,0,0.3,0,0.4H133.5z M136.5,44.5c0-0.8-0.7-1.3-1.4-1.3
		c-0.8,0-1.4,0.6-1.6,1.3H136.5z"/>
	<path class="st2" d="M140.5,46.3h1.8v0.6H139v-0.6h0.9v-3l-0.7,0.1l-0.1-0.5c0.3,0,0.6-0.1,0.9-0.3c0.1-0.1,0.1-0.2,0.3-0.2
		c0.3,0,0.3,0.3,0.3,0.5v0.5c0.5-0.4,1.1-0.9,1.8-0.9c0.5,0,0.8,0.3,1,0.8l-0.6,0.2c-0.1-0.2-0.2-0.5-0.4-0.5
		c-0.5,0-1.3,0.7-1.7,1.1V46.3z"/>
</g>
</svg>
