<?xml version="1.0" encoding="utf-8"?>
<!-- Generator: Adobe Illustrator 25.1.0, SVG Export Plug-In . SVG Version: 6.00 Build 0)  -->
<svg version="1.1" xmlns="http://www.w3.org/2000/svg" xmlns:xlink="http://www.w3.org/1999/xlink" x="0px" y="0px"
	 viewBox="0 0 24 24" style="enable-background:new 0 0 24 24;" xml:space="preserve">
<style type="text/css">
	.st0{display:none;}
	.st1{display:inline;fill:#231F20;}
	.st2{fill:#231F20;}
</style>
<g id="Layer_1" class="st0">
	<path id="Search" class="st1" d="M20.9,22c-0.3,0-0.6-0.1-0.8-0.3l-3.8-3.8c-1.6,1.2-3.5,1.9-5.4,1.9c-4.9,0-8.9-4-8.9-8.9
		C2,6,6,2,10.9,2s8.9,4,8.9,8.9c0,0,0,0,0,0c0,2-0.7,3.9-1.9,5.4l3.8,3.8c0.4,0.4,0.4,1.1,0,1.6C21.5,21.9,21.2,22,20.9,22L20.9,22z
		 M10.9,4.2c-3.7,0-6.7,3-6.7,6.7c0,3.7,3,6.7,6.7,6.7c3.7,0,6.7-3,6.7-6.7C17.5,7.2,14.6,4.2,10.9,4.2L10.9,4.2z"/>
</g>
<g id="Layer_2" class="st0">
	<path id="Cart" class="st1" d="M18.7,22H5.3C3.5,22,2,20.5,2,18.7V8.5c0-0.9,0.3-1.7,1-2.4L6.1,3c0.6-0.6,1.5-1,2.4-1h7.1
		c0.9,0,1.7,0.3,2.4,1L21,6.1c0.6,0.6,1,1.5,1,2.4v10.2C22,20.5,20.5,22,18.7,22z M4.2,8.7v10c0,0.6,0.5,1.1,1.1,1.1h13.3
		c0.6,0,1.1-0.5,1.1-1.1v-10H4.2z M8.5,4.2c-0.3,0-0.6,0.1-0.8,0.3L5.8,6.4h12.4l-1.9-1.9c-0.2-0.2-0.5-0.3-0.8-0.3H8.5z M12,16.4
		c-2.5,0-4.4-2-4.4-4.4c0-0.6,0.5-1.1,1.1-1.1c0.6,0,1.1,0.5,1.1,1.1c0,1.2,1,2.2,2.2,2.2s2.2-1,2.2-2.2c0-0.6,0.5-1.1,1.1-1.1
		c0.6,0,1.1,0.5,1.1,1.1C16.4,14.5,14.5,16.4,12,16.4L12,16.4z"/>
</g>
<g id="Layer_3">
	<g id="maps-and-flags_1_" transform="translate(-70.573)">
		<g id="Group_223" transform="translate(70.573)">
			<path id="Path_85" class="st2" d="M12,2C8,2,4.8,5.2,4.8,9.2c0,5,6.5,12.2,6.8,12.5c0.2,0.3,0.7,0.3,0.9,0.1c0,0,0,0,0.1-0.1
				c0.3-0.3,6.8-7.6,6.8-12.5C19.2,5.2,16,2,12,2z M12,12.9c-2,0-3.6-1.6-3.6-3.6S10,5.6,12,5.6s3.6,1.6,3.6,3.6c0,0,0,0,0,0
				C15.6,11.3,14,12.9,12,12.9z"/>
		</g>
	</g>
</g>
</svg>
