<?xml version="1.0" encoding="utf-8"?>
<!-- Generator: Adobe Illustrator 25.1.0, SVG Export Plug-In . SVG Version: 6.00 Build 0)  -->
<svg version="1.1" id="Layer_1" xmlns="http://www.w3.org/2000/svg" xmlns:xlink="http://www.w3.org/1999/xlink" x="0px" y="0px"
	 viewBox="0 0 24 24" style="enable-background:new 0 0 24 24;" xml:space="preserve">
<style type="text/css">
	.st0{display:none;}
	.st1{display:inline;fill:#231F20;}
	.st2{display:inline;}
	.st3{fill:#231F20;}
</style>
<g id="Layer_1_1_" class="st0">
	<path id="Search" class="st1" d="M20.9,22c-0.3,0-0.6-0.1-0.8-0.3l-3.8-3.8c-1.6,1.2-3.5,1.9-5.4,1.9c-4.9,0-8.9-4-8.9-8.9
		C2,6,6,2,10.9,2s8.9,4,8.9,8.9l0,0c0,2-0.7,3.9-1.9,5.4l3.8,3.8c0.4,0.4,0.4,1.1,0,1.6C21.5,21.9,21.2,22,20.9,22L20.9,22z
		 M10.9,4.2c-3.7,0-6.7,3-6.7,6.7s3,6.7,6.7,6.7s6.7-3,6.7-6.7C17.5,7.2,14.6,4.2,10.9,4.2L10.9,4.2z"/>
</g>
<g id="Layer_2_1_" class="st0">
	<path id="Cart" class="st1" d="M18.7,22H5.3C3.5,22,2,20.5,2,18.7V8.5c0-0.9,0.3-1.7,1-2.4L6.1,3c0.6-0.6,1.5-1,2.4-1h7.1
		c0.9,0,1.7,0.3,2.4,1l3,3.1c0.6,0.6,1,1.5,1,2.4v10.2C22,20.5,20.5,22,18.7,22z M4.2,8.7v10c0,0.6,0.5,1.1,1.1,1.1h13.3
		c0.6,0,1.1-0.5,1.1-1.1v-10C19.7,8.7,4.2,8.7,4.2,8.7z M8.5,4.2c-0.3,0-0.6,0.1-0.8,0.3L5.8,6.4h12.4l-1.9-1.9
		c-0.2-0.2-0.5-0.3-0.8-0.3H8.5z M12,16.4c-2.5,0-4.4-2-4.4-4.4c0-0.6,0.5-1.1,1.1-1.1c0.6,0,1.1,0.5,1.1,1.1c0,1.2,1,2.2,2.2,2.2
		s2.2-1,2.2-2.2c0-0.6,0.5-1.1,1.1-1.1s1.1,0.5,1.1,1.1C16.4,14.5,14.5,16.4,12,16.4L12,16.4z"/>
</g>
<g id="Layer_3" class="st0">
	<g id="maps-and-flags_1_" transform="translate(-70.573)" class="st2">
		<g id="Group_223" transform="translate(70.573)">
			<path id="Path_85" class="st3" d="M12,2C8,2,4.8,5.2,4.8,9.2c0,5,6.5,12.2,6.8,12.5c0.2,0.3,0.7,0.3,0.9,0.1c0,0,0,0,0.1-0.1
				c0.3-0.3,6.8-7.6,6.8-12.5C19.2,5.2,16,2,12,2z M12,12.9c-2,0-3.6-1.6-3.6-3.6S10,5.6,12,5.6s3.6,1.6,3.6,3.6l0,0
				C15.6,11.3,14,12.9,12,12.9z"/>
		</g>
	</g>
</g>
<g id="Layer_4" class="st0">
	<g id="telephone_2_" transform="translate(-0.006)" class="st2">
		<g id="Group_224" transform="translate(0.006)">
			<path id="Path_86" class="st3" d="M16.9,15.4c-0.5-0.6-1.4-0.6-1.9-0.1l-0.1,0.1c-0.5,0.5-1,1-1.4,1.4C13.3,17,13.1,17,13,16.9
				l0,0c-0.3-0.2-0.6-0.3-0.9-0.5c-1.4-0.9-2.6-2-3.6-3.3c-0.5-0.6-1-1.3-1.3-2.1c-0.1-0.1,0-0.3,0.1-0.4c0.5-0.5,1-0.9,1.4-1.4
				c0.6-0.5,0.7-1.4,0.2-1.9C8.7,7.2,8.7,7.1,8.6,7.1C8.2,6.7,7.8,6.3,7.5,5.9S6.7,5.2,6.3,4.8c-0.5-0.6-1.4-0.7-2-0.2L4.2,4.7
				c-0.5,0.5-1,1-1.5,1.4C2.3,6.6,2,7.2,2,7.8c0,1,0.1,2,0.5,2.9c0.7,1.9,1.8,3.7,3.1,5.2c1.8,2.1,3.9,3.8,6.4,5
				c1.1,0.6,2.3,0.9,3.6,1c0.8,0.1,1.7-0.2,2.2-0.9c0.4-0.5,0.9-0.9,1.3-1.3c0.6-0.5,0.7-1.4,0.2-2c0-0.1-0.1-0.1-0.2-0.2
				C18.4,16.9,17.6,16.1,16.9,15.4z"/>
			<path id="Path_87" class="st3" d="M16.5,12.8l1.8-0.3c-0.6-3.6-3.4-6.3-7-6.8L11,7.5C13.8,7.9,16,10,16.5,12.8L16.5,12.8z"/>
			<path id="Path_88" class="st3" d="M18.2,5.9C16,3.8,13.3,2.4,10.3,2L10,3.9c5.1,0.7,9.2,4.7,10.1,9.8l1.8-0.3
				C21.5,10.5,20.2,7.9,18.2,5.9z"/>
		</g>
	</g>
</g>
<g id="Icons_File_Text" transform="translate(-66.038 -389.454)">
	<path id="Color" class="st3" d="M83.5,411.5H72.6c-1.4,0-2.5-1.1-2.6-2.5v-15c0-1.4,1.2-2.5,2.6-2.5h7c0.3,0,0.6,0.1,0.7,0.3l5.4,6
		c0.2,0.2,0.3,0.4,0.3,0.7V409C86,410.3,84.9,411.5,83.5,411.5z M72.6,393.5c-0.3,0-0.5,0.2-0.6,0.5v15c0,0.3,0.3,0.5,0.6,0.5h10.9
		c0.3,0,0.5-0.2,0.6-0.5v-9.5h-3.3c-1.5,0-2.8-1.3-2.7-2.9v-3.1H72.6z M80,394.4v2.2c0,0.4,0.3,0.8,0.7,0.9h2L80,394.4z M81,407.5
		h-6c-0.6,0-1-0.4-1-1s0.4-1,1-1h6c0.6,0,1,0.4,1,1S81.6,407.5,81,407.5z M78,403.5h-3c-0.6,0-1-0.4-1-1s0.4-1,1-1h3
		c0.6,0,1,0.4,1,1S78.6,403.5,78,403.5z"/>
</g>
</svg>
