<?xml version="1.0" encoding="utf-8"?>
<!-- Generator: Adobe Illustrator 25.1.0, SVG Export Plug-In . SVG Version: 6.00 Build 0)  -->
<svg version="1.1" id="Layer_1" xmlns="http://www.w3.org/2000/svg" xmlns:xlink="http://www.w3.org/1999/xlink" x="0px" y="0px"
	 viewBox="0 0 24 24" style="enable-background:new 0 0 24 24;" xml:space="preserve">
<style type="text/css">
	.st0{fill:#231F20;}
</style>
<path id="Search" class="st0" d="M20.9,22c-0.3,0-0.6-0.1-0.8-0.3l-3.8-3.8c-1.6,1.2-3.5,1.9-5.4,1.9c-4.9,0-8.9-4-8.9-8.9
	C2,6,6,2,10.9,2s8.9,4,8.9,8.9c0,0,0,0,0,0c0,2-0.7,3.9-1.9,5.4l3.8,3.8c0.4,0.4,0.4,1.1,0,1.6C21.5,21.9,21.2,22,20.9,22L20.9,22z
	 M10.9,4.2c-3.7,0-6.7,3-6.7,6.7c0,3.7,3,6.7,6.7,6.7c3.7,0,6.7-3,6.7-6.7C17.5,7.2,14.6,4.2,10.9,4.2L10.9,4.2z"/>
</svg>
