<?xml version="1.0" encoding="utf-8"?>
<!-- Generator: Adobe Illustrator 25.1.0, SVG Export Plug-In . SVG Version: 6.00 Build 0)  -->
<svg version="1.1" id="Layer_1" xmlns="http://www.w3.org/2000/svg" xmlns:xlink="http://www.w3.org/1999/xlink" x="0px" y="0px"
	 viewBox="0 0 24 24" style="enable-background:new 0 0 24 24;" xml:space="preserve">
<style type="text/css">
	.st0{display:none;}
	.st1{display:inline;fill:#231F20;}
	.st2{fill:#231F20;}
</style>
<g id="Layer_1_1_" class="st0">
	<path id="Search" class="st1" d="M20.9,22c-0.3,0-0.6-0.1-0.8-0.3l-3.8-3.8c-1.6,1.2-3.5,1.9-5.4,1.9c-4.9,0-8.9-4-8.9-8.9
		C2,6,6,2,10.9,2s8.9,4,8.9,8.9l0,0c0,2-0.7,3.9-1.9,5.4l3.8,3.8c0.4,0.4,0.4,1.1,0,1.6C21.5,21.9,21.2,22,20.9,22L20.9,22z
		 M10.9,4.2c-3.7,0-6.7,3-6.7,6.7s3,6.7,6.7,6.7s6.7-3,6.7-6.7C17.5,7.2,14.6,4.2,10.9,4.2L10.9,4.2z"/>
</g>
<g id="Layer_2_1_" class="st0">
	<path id="Cart" class="st1" d="M18.7,22H5.3C3.5,22,2,20.5,2,18.7V8.5c0-0.9,0.3-1.7,1-2.4L6.1,3c0.6-0.6,1.5-1,2.4-1h7.1
		c0.9,0,1.7,0.3,2.4,1l3,3.1c0.6,0.6,1,1.5,1,2.4v10.2C22,20.5,20.5,22,18.7,22z M4.2,8.7v10c0,0.6,0.5,1.1,1.1,1.1h13.3
		c0.6,0,1.1-0.5,1.1-1.1v-10C19.7,8.7,4.2,8.7,4.2,8.7z M8.5,4.2c-0.3,0-0.6,0.1-0.8,0.3L5.8,6.4h12.4l-1.9-1.9
		c-0.2-0.2-0.5-0.3-0.8-0.3H8.5z M12,16.4c-2.5,0-4.4-2-4.4-4.4c0-0.6,0.5-1.1,1.1-1.1c0.6,0,1.1,0.5,1.1,1.1c0,1.2,1,2.2,2.2,2.2
		s2.2-1,2.2-2.2c0-0.6,0.5-1.1,1.1-1.1s1.1,0.5,1.1,1.1C16.4,14.5,14.5,16.4,12,16.4L12,16.4z"/>
</g>
<g id="user_1_" transform="translate(0.25 0.25)">
	<g id="Group_242">
		<g id="Path_104">
			<path class="st2" d="M18.8,14.7c-1.1-1.1-2.4-1.9-3.8-2.4c2.6-1.8,3.3-5.4,1.5-8c-1.8-2.6-5.4-3.3-8-1.5s-3.3,5.4-1.5,8
				c0.4,0.6,0.9,1.1,1.5,1.5c-4,1.4-6.7,5.2-6.7,9.4h1.6c0-4.7,3.8-8.4,8.4-8.4s8.4,3.8,8.4,8.4h1.6C21.7,19.1,20.7,16.5,18.8,14.7z
				 M11.7,11.8c-2.3,0-4.2-1.9-4.2-4.2c0-2.3,1.9-4.2,4.2-4.2c2.3,0,4.2,1.9,4.2,4.2c0,0,0,0,0,0C16,9.9,14.1,11.7,11.7,11.8z"/>
			<path class="st2" d="M22,22h-2.1v-0.3c0-4.5-3.7-8.2-8.2-8.2c-4.5,0-8.2,3.7-8.2,8.2V22H1.5v-0.3c0-4.2,2.6-8,6.5-9.5
				c-0.5-0.4-0.9-0.8-1.2-1.3C4.9,8.2,5.6,4.4,8.3,2.6c2.7-1.9,6.5-1.2,8.4,1.6c0.9,1.3,1.3,2.9,1,4.5c-0.3,1.4-1,2.7-2.1,3.6
				c1.3,0.5,2.5,1.3,3.5,2.3c1.9,1.9,3,4.5,3,7.2L22,22z M20.4,21.5h1.1c-0.1-2.5-1.1-4.9-2.8-6.6l0,0c-1-1-2.3-1.8-3.7-2.3
				l-0.5-0.2l0.4-0.3c1.2-0.8,2-2.1,2.3-3.5c0.3-1.5,0-2.9-0.9-4.1C14.6,1.9,11.1,1.3,8.6,3c-2.5,1.7-3.2,5.2-1.4,7.7
				c0.4,0.6,0.9,1,1.4,1.4L9,12.4l-0.5,0.2c-3.8,1.3-6.4,4.9-6.5,9h1.1c0.1-4.7,4-8.4,8.7-8.4S20.3,16.8,20.4,21.5z M11.7,12
				c-2.5,0-4.5-2-4.5-4.5c0-2.5,2-4.5,4.5-4.5c0,0,0,0,0,0c2.5,0,4.5,2,4.5,4.5C16.2,10,14.2,12,11.7,12L11.7,12
				C11.7,12,11.7,12,11.7,12z M11.7,3.6C11.7,3.6,11.7,3.6,11.7,3.6c-2.2,0-4,1.8-4,4c0,2.2,1.8,4,4,4c0,0,0,0,0,0l0,0
				c2.2,0,4-1.8,4-4C15.7,5.3,13.9,3.6,11.7,3.6z"/>
		</g>
	</g>
</g>
</svg>
