<svg xmlns="http://www.w3.org/2000/svg" width="20.48" height="20.48" viewBox="0 0 20.48 20.48">
  <g id="user_1_" data-name="user (1)" transform="translate(0.25 0.25)">
    <g id="Group_242" data-name="Group 242">
      <path id="Path_104" data-name="Path 104" d="M17.054,12.916a9.952,9.952,0,0,0-3.8-2.381,5.775,5.775,0,1,0-6.536,0A10.006,10.006,0,0,0,0,19.98H1.561a8.429,8.429,0,1,1,16.858,0H19.98A9.925,9.925,0,0,0,17.054,12.916ZM9.99,9.99A4.215,4.215,0,1,1,14.2,5.775,4.219,4.219,0,0,1,9.99,9.99Z" transform="translate(0 0)" fill="#231f20" stroke="#231f20" stroke-width="0.5"/>
    </g>
  </g>
</svg>
