<?xml version="1.0" encoding="utf-8"?>
<!-- Generator: Adobe Illustrator 25.1.0, SVG Export Plug-In . SVG Version: 6.00 Build 0)  -->
<svg version="1.1" id="Layer_1" xmlns="http://www.w3.org/2000/svg" xmlns:xlink="http://www.w3.org/1999/xlink" x="0px" y="0px"
	 viewBox="0 0 24 24" style="enable-background:new 0 0 24 24;" xml:space="preserve">
<style type="text/css">
	.st0{display:none;fill:#FFFFFF;}
	.st1{fill:#FFFFFF;}
</style>
<path id="Color" class="st0" d="M18.8,22.5c-1,0-1.7-0.8-1.7-1.7c0-1,0.8-1.7,1.7-1.7c1,0,1.7,0.8,1.7,1.7c0,0,0,0,0,0
	C20.5,21.7,19.7,22.5,18.8,22.5z M7.1,22.5c-1,0-1.7-0.8-1.7-1.7c0-1,0.8-1.7,1.7-1.7s1.7,0.8,1.7,1.7c0,0,0,0,0,0
	C8.9,21.7,8.1,22.5,7.1,22.5L7.1,22.5z M18.2,16.7H7.7c-0.5,0-1-0.4-1.1-0.9l-3.3-12H1.9c-0.6,0-1.2-0.5-1.2-1.2s0.5-1.2,1.2-1.2
	h2.3c0.5,0,1,0.4,1.1,0.9L6,5H21c1.3,0,2.3,1,2.3,2.3c0,0.4-0.1,0.7-0.2,1L19.2,16C19,16.4,18.6,16.7,18.2,16.7z M6.7,7.3l1.9,7h8.9
	l3.5-7H6.7z"/>
<path id="Color_1_" class="st1" d="M9.7,21.3H3.9c-0.6,0-1.2-0.5-1.2-1.2l0-5.8c0-0.6,0.5-1.2,1.2-1.2c0,0,0,0,0,0h0
	c0.6,0,1.2,0.5,1.2,1.2l0,3l3.8-3.8c0.5-0.4,1.2-0.4,1.6,0c0.4,0.4,0.4,1.2,0,1.6L6.7,19h3c0.6,0,1.2,0.5,1.2,1.2
	C10.8,20.8,10.3,21.3,9.7,21.3L9.7,21.3z M20.2,10.8c-0.6,0-1.2-0.5-1.2-1.2v-3l-3.8,3.8c-0.5,0.5-1.2,0.4-1.6,0
	c-0.4-0.5-0.4-1.2,0-1.6L17.3,5l-3,0c-0.6,0-1.2-0.5-1.2-1.2s0.5-1.2,1.2-1.2h0l5.8,0c0.6,0,1.2,0.5,1.2,1.2v5.8
	C21.3,10.3,20.8,10.8,20.2,10.8L20.2,10.8z"/>
</svg>
